<svg width="1106" height="1106" viewBox="0 0 1106 1106" fill="none" xmlns="http://www.w3.org/2000/svg">
<g filter="url(#filter0_d_177_1400)">
<g filter="url(#filter1_g_177_1400)">
<path d="M722.103 417.926C740.946 400.691 771.497 400.691 790.341 417.926C809.184 435.16 809.184 463.103 790.341 480.337L669.345 591.002H844.579C868.952 591.002 888.711 610.761 888.711 635.134C888.711 659.507 868.952 679.266 844.579 679.266H669.345L790.341 789.931C809.184 807.165 809.184 835.107 790.341 852.342C771.498 869.576 740.947 869.576 722.104 852.342L552.854 697.544L383.607 852.342C364.764 869.576 334.212 869.576 315.369 852.342C296.526 835.107 296.527 807.165 315.37 789.931L436.366 679.266H261.132C236.759 679.266 217 659.507 217 635.134C217 610.761 236.759 591.002 261.132 591.002H436.366L315.37 480.337C296.527 463.103 296.527 435.16 315.37 417.926C334.213 400.691 364.764 400.691 383.607 417.926L552.854 572.722L722.103 417.926Z" fill="white"/>
</g>
<rect x="506" y="241" width="94" height="238" rx="47" fill="white"/>
</g>
<defs>
<filter id="filter0_d_177_1400" x="-4" y="0" width="1114" height="1114" filterUnits="userSpaceOnUse" color-interpolation-filters="sRGB">
<feFlood flood-opacity="0" result="BackgroundImageFix"/>
<feColorMatrix in="SourceAlpha" type="matrix" values="0 0 0 0 0 0 0 0 0 0 0 0 0 0 0 0 0 0 127 0" result="hardAlpha"/>
<feOffset dy="4"/>
<feGaussianBlur stdDeviation="2"/>
<feComposite in2="hardAlpha" operator="out"/>
<feColorMatrix type="matrix" values="0 0 0 0 0 0 0 0 0 0 0 0 0 0 0 0 0 0 0.25 0"/>
<feBlend mode="normal" in2="BackgroundImageFix" result="effect1_dropShadow_177_1400"/>
<feBlend mode="normal" in="SourceGraphic" in2="effect1_dropShadow_177_1400" result="shape"/>
</filter>
<filter id="filter1_g_177_1400" x="216.89" y="404.89" width="671.931" height="460.488" filterUnits="userSpaceOnUse" color-interpolation-filters="sRGB">
<feFlood flood-opacity="0" result="BackgroundImageFix"/>
<feBlend mode="normal" in="SourceGraphic" in2="BackgroundImageFix" result="shape"/>
<feTurbulence type="fractalNoise" baseFrequency="0.0099999997764825821 0.0099999997764825821" numOctaves="3" seed="5811" />
<feDisplacementMap in="shape" scale="0.2199999988079071" xChannelSelector="R" yChannelSelector="G" result="displacedImage" width="100%" height="100%" />
<feMerge result="effect1_texture_177_1400">
<feMergeNode in="displacedImage"/>
</feMerge>
</filter>
</defs>
</svg>
